<svg width="25" height="24" viewBox="0 0 25 24" fill="none" xmlns="http://www.w3.org/2000/svg">
    <path d="M2.5 12C2.5 8.229 2.5 6.343 3.672 5.172C4.844 4.001 6.729 4 10.5 4H14.5C18.271 4 20.157 4 21.328 5.172C22.499 6.344 22.5 8.229 22.5 12V14C22.5 17.771 22.5 19.657 21.328 20.828C20.156 21.999 18.271 22 14.5 22H10.5C6.729 22 4.843 22 3.672 20.828C2.501 19.656 2.5 17.771 2.5 14V12Z" stroke="white" stroke-width="1.5"/>
    <path opacity="0.5" d="M7.5 4V2.5M17.5 4V2.5M3 9H22" stroke="white" stroke-width="1.5" stroke-linecap="round"/>
    <path d="M18.5 17C18.5 17.2652 18.3946 17.5196 18.2071 17.7071C18.0196 17.8946 17.7652 18 17.5 18C17.2348 18 16.9804 17.8946 16.7929 17.7071C16.6054 17.5196 16.5 17.2652 16.5 17C16.5 16.7348 16.6054 16.4804 16.7929 16.2929C16.9804 16.1054 17.2348 16 17.5 16C17.7652 16 18.0196 16.1054 18.2071 16.2929C18.3946 16.4804 18.5 16.7348 18.5 17ZM18.5 13C18.5 13.2652 18.3946 13.5196 18.2071 13.7071C18.0196 13.8946 17.7652 14 17.5 14C17.2348 14 16.9804 13.8946 16.7929 13.7071C16.6054 13.5196 16.5 13.2652 16.5 13C16.5 12.7348 16.6054 12.4804 16.7929 12.2929C16.9804 12.1054 17.2348 12 17.5 12C17.7652 12 18.0196 12.1054 18.2071 12.2929C18.3946 12.4804 18.5 12.7348 18.5 13ZM13.5 17C13.5 17.2652 13.3946 17.5196 13.2071 17.7071C13.0196 17.8946 12.7652 18 12.5 18C12.2348 18 11.9804 17.8946 11.7929 17.7071C11.6054 17.5196 11.5 17.2652 11.5 17C11.5 16.7348 11.6054 16.4804 11.7929 16.2929C11.9804 16.1054 12.2348 16 12.5 16C12.7652 16 13.0196 16.1054 13.2071 16.2929C13.3946 16.4804 13.5 16.7348 13.5 17ZM13.5 13C13.5 13.2652 13.3946 13.5196 13.2071 13.7071C13.0196 13.8946 12.7652 14 12.5 14C12.2348 14 11.9804 13.8946 11.7929 13.7071C11.6054 13.5196 11.5 13.2652 11.5 13C11.5 12.7348 11.6054 12.4804 11.7929 12.2929C11.9804 12.1054 12.2348 12 12.5 12C12.7652 12 13.0196 12.1054 13.2071 12.2929C13.3946 12.4804 13.5 12.7348 13.5 13ZM8.5 17C8.5 17.2652 8.39464 17.5196 8.20711 17.7071C8.01957 17.8946 7.76522 18 7.5 18C7.23478 18 6.98043 17.8946 6.79289 17.7071C6.60536 17.5196 6.5 17.2652 6.5 17C6.5 16.7348 6.60536 16.4804 6.79289 16.2929C6.98043 16.1054 7.23478 16 7.5 16C7.76522 16 8.01957 16.1054 8.20711 16.2929C8.39464 16.4804 8.5 16.7348 8.5 17ZM8.5 13C8.5 13.2652 8.39464 13.5196 8.20711 13.7071C8.01957 13.8946 7.76522 14 7.5 14C7.23478 14 6.98043 13.8946 6.79289 13.7071C6.60536 13.5196 6.5 13.2652 6.5 13C6.5 12.7348 6.60536 12.4804 6.79289 12.2929C6.98043 12.1054 7.23478 12 7.5 12C7.76522 12 8.01957 12.1054 8.20711 12.2929C8.39464 12.4804 8.5 12.7348 8.5 13Z" fill="white"/>
</svg>
