<svg width="24" height="24" viewBox="0 0 24 24" fill="none" xmlns="http://www.w3.org/2000/svg">
    <path d="M2 22H13C14.1819 22 15.3522 21.7672 16.4442 21.3149C17.5361 20.8626 18.5282 20.1997 19.364 19.364C20.1997 18.5282 20.8626 17.5361 21.3149 16.4442C21.7672 15.3522 22 14.1819 22 13C22 11.8181 21.7672 10.6478 21.3149 9.55585C20.8626 8.46392 20.1997 7.47177 19.364 6.63604C18.5282 5.80031 17.5361 5.13738 16.4442 4.68508C15.3522 4.23279 14.1819 4 13 4C8.367 4 4.497 7.5 4 12M18.5 5.5L19.5 4.5M5.5 4.5L6.5 5.5" stroke="#e10600" stroke-width="1.5" stroke-linecap="round" stroke-linejoin="round"/>
    <path d="M16.5 9L13.56 11.94C13.4216 11.7967 13.2561 11.6825 13.0731 11.6038C12.8901 11.5252 12.6933 11.4839 12.4941 11.4821C12.2949 11.4804 12.0974 11.5183 11.9131 11.5938C11.7287 11.6692 11.5612 11.7806 11.4204 11.9214C11.2796 12.0622 11.1682 12.2297 11.0928 12.4141C11.0173 12.5984 10.9794 12.7959 10.9811 12.9951C10.9829 13.1943 11.0242 13.3911 11.1028 13.5741C11.1815 13.7571 11.2957 13.9226 11.439 14.061C11.7204 14.3424 12.102 14.5005 12.5 14.5005C12.898 14.5005 13.2796 14.3424 13.561 14.061C13.8424 13.7796 14.0005 13.398 14.0005 13C14.0005 12.602 13.8424 12.2204 13.561 11.939M12.5 3.5V2M10.5 2H14.5M2 15H5M2 19H7" stroke="#e10600" stroke-width="1.5" stroke-linecap="round" stroke-linejoin="round"/>
</svg>
