<svg width="48" height="49" viewBox="0 0 48 49" fill="none" xmlns="http://www.w3.org/2000/svg">
    <path d="M4 44.5H26C28.3638 44.5 30.7044 44.0344 32.8883 43.1298C35.0722 42.2252 37.0565 40.8994 38.7279 39.2279C40.3994 37.5565 41.7252 35.5722 42.6298 33.3883C43.5344 31.2044 44 28.8638 44 26.5C44 24.1362 43.5344 21.7956 42.6298 19.6117C41.7252 17.4278 40.3994 15.4435 38.7279 13.7721C37.0565 12.1006 35.0722 10.7748 32.8883 9.87017C30.7044 8.96558 28.3638 8.5 26 8.5C16.734 8.5 8.994 15.5 8 24.5M37 11.5L39 9.5M11 9.5L13 11.5" stroke="#e10600" stroke-width="3" stroke-linecap="round" stroke-linejoin="round"/>
    <path d="M33 18.5L27.12 24.38C26.8433 24.0935 26.5122 23.8649 26.1462 23.7077C25.7802 23.5505 25.3865 23.4677 24.9882 23.4642C24.5899 23.4608 24.1948 23.5367 23.8261 23.6875C23.4575 23.8384 23.1225 24.0611 22.8408 24.3428C22.5591 24.6245 22.3364 24.9594 22.1855 25.3281C22.0347 25.6968 21.9588 26.0919 21.9622 26.4902C21.9657 26.8885 22.0485 27.2822 22.2057 27.6482C22.3629 28.0142 22.5915 28.3453 22.878 28.622C23.4408 29.1848 24.2041 29.501 25 29.501C25.7959 29.501 26.5592 29.1848 27.122 28.622C27.6848 28.0592 28.001 27.2959 28.001 26.5C28.001 25.7041 27.6848 24.9408 27.122 24.378M25 7.5V4.5M21 4.5H29M4 30.5H10M4 38.5H14" stroke="#e10600" stroke-width="3" stroke-linecap="round" stroke-linejoin="round"/>
</svg>
