<svg width="42" height="41" viewBox="0 0 42 41" fill="none" xmlns="http://www.w3.org/2000/svg">
    <path d="M11 13.26H20M20 13.26H26M20 13.26V10.5M31 13.26H26M26 13.26C24.946 17.032 22.736 20.598 20.214 23.732M20.214 23.732C18.126 26.326 15.824 28.626 13.786 30.5M20.214 23.732C18.928 22.224 17.128 19.786 16.614 18.682M20.214 23.732L24.072 27.742" stroke="#e10600" stroke-width="3" stroke-linecap="round" stroke-linejoin="round"/>
    <path d="M2 20.5C2 11.544 2 7.064 4.782 4.282C7.564 1.5 12.042 1.5 21 1.5C29.956 1.5 34.436 1.5 37.218 4.282C40 7.064 40 11.542 40 20.5C40 29.456 40 33.936 37.218 36.718C34.436 39.5 29.958 39.5 21 39.5C12.044 39.5 7.564 39.5 4.782 36.718C2 33.936 2 29.458 2 20.5Z" stroke="#e10600" stroke-width="3" stroke-linecap="round" stroke-linejoin="round"/>
</svg>
