<svg version="1.1" id="Layer_1" xmlns="http://www.w3.org/2000/svg" xmlns:xlink="http://www.w3.org/1999/xlink" x="0px" y="0px"
     viewBox="0 0 18.716 20.4" style="enable-background:new 0 0 18.716 20.4;" xml:space="preserve">
<style type="text/css">
	.st0{fill:#E10600;}
</style>
    <g>
	<path class="st0" d="M15.108,20.4c-0.929,0-3.608-2.454-3.608-4.825c0-1.971,1.619-3.575,3.608-3.575
		c1.989,0,3.607,1.604,3.607,3.575C18.716,17.946,16.037,20.4,15.108,20.4z M15.108,12.9c-1.493,0-2.708,1.2-2.708,2.675
		c0,1.869,2.207,3.84,2.725,3.926c0.483-0.087,2.69-2.058,2.69-3.926C17.815,14.1,16.602,12.9,15.108,12.9z"/>
</g>
    <g>
	<path class="st0" d="M15.107,17.045c-0.9,0-1.634-0.733-1.634-1.634s0.733-1.634,1.634-1.634c0.901,0,1.635,0.733,1.635,1.634
		S16.009,17.045,15.107,17.045z M15.107,14.677c-0.404,0-0.733,0.329-0.733,0.734s0.329,0.734,0.733,0.734
		c0.405,0,0.734-0.329,0.734-0.734S15.513,14.677,15.107,14.677z"/>
</g>
    <g>
	<path class="st0" d="M3.608,8.4C2.679,8.4,0,5.947,0,3.575C0,1.604,1.619,0,3.608,0c1.99,0,3.608,1.604,3.608,3.575
		C7.216,5.947,4.537,8.4,3.608,8.4z M3.608,0.9C2.115,0.9,0.9,2.1,0.9,3.575c0,1.869,2.207,3.839,2.725,3.926
		c0.483-0.086,2.691-2.057,2.691-3.926C6.316,2.1,5.101,0.9,3.608,0.9z"/>
</g>
    <g>
	<path class="st0" d="M3.608,5.045c-0.901,0-1.635-0.733-1.635-1.634s0.733-1.634,1.635-1.634c0.901,0,1.634,0.733,1.634,1.634
		S4.509,5.045,3.608,5.045z M3.608,2.677c-0.405,0-0.734,0.329-0.734,0.734s0.329,0.734,0.734,0.734
		c0.405,0,0.734-0.329,0.734-0.734S4.013,2.677,3.608,2.677z"/>
</g>
    <g>
	<path class="st0" d="M8.832,17.7H5.896c-2.323,0-3.581-1.741-3.767-3.358s0.644-3.599,2.906-4.126
		c0.283-0.066,0.572-0.099,0.861-0.099h7.233c0.131,0,0.262-0.012,0.391-0.035c1.372-0.246,1.897-1.367,1.809-2.369
		S14.524,5.7,13.128,5.7H8.832c-0.414,0-0.75-0.336-0.75-0.75S8.417,4.2,8.832,4.2h4.297c2.332,0,3.549,1.752,3.694,3.38
		s-0.745,3.567-3.041,3.979c-0.217,0.038-0.435,0.058-0.653,0.058H5.896c-0.174,0-0.349,0.02-0.521,0.06
		c-1.468,0.342-1.864,1.557-1.756,2.494c0.107,0.937,0.769,2.03,2.276,2.03h2.936c0.414,0,0.75,0.336,0.75,0.75
		S9.246,17.7,8.832,17.7z"/>
</g>
</svg>
