<svg width="30" height="30" viewBox="0 0 30 30" fill="none" xmlns="http://www.w3.org/2000/svg"> <path d="M8.18172 10.2034C7.9127 10.1324 7.6891 9.94563 7.57139 9.69352C7.45369 9.44141 7.45405 9.15005 7.57238 8.89823L9.64832 4.48024C9.80302 4.15101 10.1342 3.94099 10.498 3.94144C10.8617 3.94189 11.1924 4.15273 11.3463 4.48234L12.2621 6.44389C12.2948 6.43102 12.3286 6.41986 12.3634 6.41054C17.7976 4.95445 23.3833 8.17934 24.8394 13.6135C26.2954 19.0477 23.0706 24.6334 17.6364 26.0895C12.2022 27.5456 6.61651 24.3207 5.16043 18.8865C4.6974 17.1584 4.70782 15.4123 5.11336 13.7889C5.23884 13.2866 5.74779 12.9811 6.25012 13.1066C6.75245 13.2321 7.05794 13.741 6.93246 14.2433C6.60209 15.5658 6.59299 16.9884 6.97154 18.4012C8.15961 22.8351 12.7171 25.4664 17.1511 24.2784C21.585 23.0903 24.2163 18.5327 23.0282 14.0988C21.8596 9.73737 17.4308 7.12011 13.0663 8.16643L13.9903 10.1456C14.1442 10.4752 14.0935 10.864 13.8603 11.1432C13.627 11.4224 13.2534 11.5414 12.9016 11.4486L8.18172 10.2034Z" fill="white" stroke="white" stroke-linejoin="round"></path> </svg>