<svg width="18" height="20" viewBox="0 0 18 20" fill="none" xmlns="http://www.w3.org/2000/svg">
    <path d="M14.3333 15.9778H13.6578C12.9467 15.9778 12.2711 16.2533 11.7733 16.7511L10.2533 18.2533C9.56 18.9378 8.43111 18.9378 7.73778 18.2533L6.21778 16.7511C5.72 16.2533 5.03556 15.9778 4.33333 15.9778H3.66667C2.19111 15.9778 1 14.7955 1 13.3378V3.63997C1 2.1822 2.19111 1 3.66667 1H14.3333C15.8089 1 17 2.1822 17 3.63997V13.3378C17 14.7867 15.8089 15.9778 14.3333 15.9778Z" stroke="#E10600" stroke-width="1.4" stroke-miterlimit="10" stroke-linecap="round" stroke-linejoin="round"></path>
    <path d="M9.25035 12.5107C9.11702 12.5552 8.8948 12.5552 8.75258 12.5107C7.59702 12.1107 5.00146 10.4663 5.00146 7.6663C5.00146 6.43074 5.99702 5.43518 7.22369 5.43518C7.95258 5.43518 8.59258 5.78185 9.00146 6.32407C9.41035 5.78185 10.0504 5.43518 10.7792 5.43518C12.0059 5.43518 13.0015 6.43074 13.0015 7.6663C12.9926 10.4663 10.4059 12.1107 9.25035 12.5107Z" stroke="#E10600" stroke-width="1.4" stroke-linecap="round" stroke-linejoin="round"></path>
</svg>