<svg width="48" height="48" viewBox="0 0 48 48" fill="none" xmlns="http://www.w3.org/2000/svg">
    <g clip-path="url(#clip0_8982_39839)">
        <path d="M23.9997 0.4375C19.2866 0.4375 14.6794 1.81374 10.7606 4.39218C6.84181 6.97062 3.78749 10.6355 1.98387 14.9233C0.180247 19.2111 -0.291662 23.9292 0.627815 28.4811C1.54729 33.033 3.81686 37.2142 7.14952 40.4959C10.4822 43.7777 14.7282 46.0126 19.3508 46.918C23.9733 47.8234 28.7647 47.3587 33.119 45.5827C37.4733 43.8066 41.195 40.7989 43.8135 36.94C46.4319 33.0811 47.8295 28.5443 47.8295 23.9032C47.8226 17.6818 45.3098 11.7171 40.8423 7.31795C36.3748 2.91875 30.3177 0.444295 23.9997 0.4375ZM23.9997 43.4579C20.0721 43.4579 16.2328 42.3111 12.9671 40.1624C9.70146 38.0137 7.15619 34.9596 5.65318 31.3865C4.15016 27.8133 3.7569 23.8815 4.52313 20.0882C5.28936 16.295 7.18067 12.8107 9.95788 10.0759C12.7351 7.34112 16.2735 5.47871 20.1256 4.72419C23.9777 3.96966 27.9705 4.35691 31.5991 5.83696C35.2277 7.31702 38.3291 9.8234 40.5112 13.0392C42.6932 16.2549 43.8579 20.0356 43.8579 23.9032C43.852 29.0876 41.7579 34.0581 38.035 37.724C34.3122 41.39 29.2646 43.4521 23.9997 43.4579Z" fill="white" fill-opacity="0.75"/>
        <path d="M31.8916 21.3377L22.9213 15.1719C22.4449 14.8447 21.8866 14.6524 21.3069 14.6158C20.7273 14.5792 20.1486 14.6997 19.6336 14.9643C19.1187 15.2288 18.6872 15.6273 18.3861 16.1164C18.085 16.6055 17.9258 17.1665 17.9258 17.7385V30.0702C17.9254 30.6423 18.0843 31.2036 18.3853 31.6929C18.6863 32.1823 19.1179 32.581 19.633 32.8456C20.1481 33.1103 20.727 33.2307 21.3068 33.1939C21.8866 33.157 22.4451 32.9643 22.9213 32.6366L31.8916 26.4708V26.4692C32.3112 26.1809 32.6539 25.797 32.8905 25.3503C33.1271 24.9036 33.2507 24.4072 33.2507 23.9034C33.2507 23.3996 33.1271 22.9032 32.8905 22.4565C32.6539 22.0098 32.3112 21.626 31.8916 21.3377Z" fill="white" fill-opacity="0.75"/>
    </g>
    <defs>
        <clipPath id="clip0_8982_39839">
            <rect width="47.6596" height="46.9314" fill="white" transform="translate(0.169922 0.4375)"/>
        </clipPath>
    </defs>
</svg>
