<svg width="19" height="20" viewBox="0 0 19 20" fill="none" xmlns="http://www.w3.org/2000/svg">
    <g clip-path="url(#clip0_496_108282)">
        <path d="M15 15.9L12.4028 13.2982M13.8421 9.82105C13.8421 11.1262 13.3237 12.3779 12.4008 13.3008C11.4779 14.2237 10.2262 14.7421 8.92105 14.7421C7.61591 14.7421 6.36422 14.2237 5.44134 13.3008C4.51846 12.3779 4 11.1262 4 9.82105C4 8.5159 4.51846 7.26421 5.44134 6.34134C6.36422 5.41846 7.61591 4.89999 8.92105 4.89999C10.2262 4.89999 11.4779 5.41846 12.4008 6.34134C13.3237 7.26421 13.8421 8.5159 13.8421 9.82105Z" stroke="black" stroke-opacity="0.23" stroke-width="1.80952" stroke-linecap="round"/>
    </g>
    <defs>
        <clipPath id="clip0_496_108282">
            <rect width="13" height="13" fill="white" transform="translate(3 3.89999)"/>
        </clipPath>
    </defs>
</svg>
