<svg width="18" height="15" viewBox="0 0 18 15" fill="none" xmlns="http://www.w3.org/2000/svg">
    <path d="M1.31369 5.5311L1.04599 6.23169L1.31369 5.5311ZM1.31369 9.2689L1.04599 8.56831L1.31369 9.2689ZM16.6863 9.2689L16.4186 9.9695L16.6863 9.2689ZM16.6863 5.5311L16.954 6.23169L16.6863 5.5311ZM5 0.25C2.37665 0.25 0.25 2.37665 0.25 5H1.75C1.75 3.20508 3.20508 1.75 5 1.75V0.25ZM13 0.25H5V1.75H13V0.25ZM17.75 5C17.75 2.37665 15.6234 0.25 13 0.25V1.75C14.7949 1.75 16.25 3.20507 16.25 5H17.75ZM17.75 5.11305V5H16.25V5.11305H17.75ZM16.15 7.4C16.15 6.86797 16.4827 6.41178 16.954 6.23169L16.4186 4.8305C15.3857 5.22519 14.65 6.22575 14.65 7.4H16.15ZM16.954 8.56831C16.4827 8.38822 16.15 7.93203 16.15 7.4H14.65C14.65 8.57425 15.3857 9.57481 16.4186 9.9695L16.954 8.56831ZM17.75 9.8V9.68695H16.25V9.8H17.75ZM13 14.55C15.6234 14.55 17.75 12.4233 17.75 9.8H16.25C16.25 11.5949 14.7949 13.05 13 13.05V14.55ZM5 14.55H13V13.05H5V14.55ZM0.25 9.8C0.25 12.4234 2.37665 14.55 5 14.55V13.05C3.20507 13.05 1.75 11.5949 1.75 9.8H0.25ZM0.25 9.68695V9.8H1.75V9.68695H0.25ZM1.58139 9.9695C2.61435 9.57481 3.35 8.57425 3.35 7.4H1.85C1.85 7.93203 1.5173 8.38822 1.04599 8.56831L1.58139 9.9695ZM3.35 7.4C3.35 6.22575 2.61435 5.22519 1.58139 4.8305L1.04599 6.23169C1.5173 6.41178 1.85 6.86797 1.85 7.4H3.35ZM0.25 5V5.11305H1.75V5H0.25ZM1.58139 4.8305C1.6133 4.84269 1.64961 4.86557 1.68214 4.90739C1.71684 4.95199 1.75 5.02348 1.75 5.11305H0.25C0.25 5.68196 0.646712 6.07913 1.04599 6.23169L1.58139 4.8305ZM1.75 9.68695C1.75 9.77652 1.71684 9.84801 1.68214 9.8926C1.64961 9.93442 1.6133 9.95731 1.58139 9.9695L1.04599 8.56831C0.646711 8.72087 0.25 9.11804 0.25 9.68695H1.75ZM16.4186 9.9695C16.3867 9.95731 16.3504 9.93442 16.3179 9.8926C16.2832 9.84801 16.25 9.77652 16.25 9.68695H17.75C17.75 9.11804 17.3533 8.72087 16.954 8.56831L16.4186 9.9695ZM16.25 5.11305C16.25 5.02348 16.2832 4.95199 16.3179 4.90739C16.3504 4.86557 16.3867 4.84269 16.4186 4.8305L16.954 6.23169C17.3533 6.07913 17.75 5.68196 17.75 5.11305H16.25Z" fill="#E10600"></path>
    <path d="M8.60081 4.72826C8.80086 4.46337 9.19875 4.46337 9.3988 4.72826L10.093 5.64745C10.1528 5.72667 10.2349 5.78629 10.3287 5.8187L11.4174 6.19489C11.7312 6.30329 11.8541 6.68171 11.664 6.95382L11.0043 7.89809C10.9475 7.97947 10.9162 8.07593 10.9143 8.17518L10.893 9.32687C10.8868 9.65876 10.5649 9.89263 10.2474 9.79592L9.14548 9.46032C9.05052 9.4314 8.94909 9.4314 8.85413 9.46032L7.75222 9.79592C7.43468 9.89263 7.11278 9.65876 7.10663 9.32687L7.0853 8.17518C7.08346 8.07593 7.05212 7.97947 6.99526 7.89809L6.33558 6.95382C6.14548 6.68171 6.26843 6.30329 6.58217 6.19489L7.6709 5.8187C7.76473 5.78629 7.84678 5.72667 7.9066 5.64745L8.60081 4.72826Z" stroke="#E10600" stroke-width="1.5"></path>
</svg>