<?xml version="1.0" encoding="utf-8"?>
<!-- Generator: Adobe Illustrator 26.3.1, SVG Export Plug-In . SVG Version: 6.00 Build 0)  -->
<svg version="1.1" id="Layer_1" xmlns="http://www.w3.org/2000/svg" xmlns:xlink="http://www.w3.org/1999/xlink" x="0px" y="0px"
	 viewBox="0 0 817.809 818.984" style="enable-background:new 0 0 817.809 818.984;" xml:space="preserve">
<style type="text/css">
	.st0{opacity:0.998;fill-rule:evenodd;clip-rule:evenodd;fill:#022767;enable-background:new    ;}
	.st1{fill-rule:evenodd;clip-rule:evenodd;fill:#C8102E;}
	.st2{fill-rule:evenodd;clip-rule:evenodd;fill:#FEFCFC;}
	.st3{fill-rule:evenodd;clip-rule:evenodd;fill:#012168;}
	.st4{fill-rule:evenodd;clip-rule:evenodd;fill:#EFF3F9;}
	.st5{opacity:0.997;fill-rule:evenodd;clip-rule:evenodd;fill:#F4F7FB;enable-background:new    ;}
	.st6{fill-rule:evenodd;clip-rule:evenodd;fill:#1B3065;}
	.st7{fill-rule:evenodd;clip-rule:evenodd;fill:#B4CBED;}
	.st8{fill-rule:evenodd;clip-rule:evenodd;fill:#F2F6FA;}
	.st9{fill-rule:evenodd;clip-rule:evenodd;fill:#697CA4;}
	.st10{fill-rule:evenodd;clip-rule:evenodd;fill:#ABC2E5;}
	.st11{fill-rule:evenodd;clip-rule:evenodd;fill:#ACC3E8;}
	.st12{fill-rule:evenodd;clip-rule:evenodd;fill:#B0C6E6;}
	.st13{fill-rule:evenodd;clip-rule:evenodd;fill:#AFC3E1;}
	.st14{fill-rule:evenodd;clip-rule:evenodd;fill:#F3F7FA;}
	.st15{fill-rule:evenodd;clip-rule:evenodd;fill:#C9122F;}
	.st16{fill-rule:evenodd;clip-rule:evenodd;fill:#F1F6F9;}
	.st17{fill-rule:evenodd;clip-rule:evenodd;fill:#F3F7F9;}
	.st18{fill-rule:evenodd;clip-rule:evenodd;fill:#A0B9DD;}
	.st19{fill-rule:evenodd;clip-rule:evenodd;fill:#A4BCDF;}
	.st20{fill-rule:evenodd;clip-rule:evenodd;fill:#9FB8DE;}
	.st21{fill-rule:evenodd;clip-rule:evenodd;fill:#A7BFE2;}
	.st22{fill-rule:evenodd;clip-rule:evenodd;fill:#9FB9DF;}
	.st23{fill-rule:evenodd;clip-rule:evenodd;fill:#9EB7DB;}
	.st24{fill-rule:evenodd;clip-rule:evenodd;fill:#F2F5F9;}
	.st25{fill-rule:evenodd;clip-rule:evenodd;fill:#F1F6FA;}
	.st26{fill-rule:evenodd;clip-rule:evenodd;fill:#F3F7FB;}
	.st27{fill-rule:evenodd;clip-rule:evenodd;fill:#93ADD4;}
	.st28{fill-rule:evenodd;clip-rule:evenodd;fill:#93ABCD;}
	.st29{fill-rule:evenodd;clip-rule:evenodd;fill:#94ADD1;}
	.st30{fill-rule:evenodd;clip-rule:evenodd;fill:#91ABD2;}
	.st31{fill-rule:evenodd;clip-rule:evenodd;fill:#98B2D5;}
	.st32{fill-rule:evenodd;clip-rule:evenodd;fill:#F2F7FA;}
	.st33{fill-rule:evenodd;clip-rule:evenodd;fill:#F2F5FA;}
	.st34{opacity:0.988;fill-rule:evenodd;clip-rule:evenodd;fill:#F4F7FA;enable-background:new    ;}
	.st35{fill-rule:evenodd;clip-rule:evenodd;fill:#8CA9CF;}
	.st36{fill-rule:evenodd;clip-rule:evenodd;fill:#89A5CC;}
	.st37{fill-rule:evenodd;clip-rule:evenodd;fill:#88A2C8;}
	.st38{fill-rule:evenodd;clip-rule:evenodd;fill:#86A4CC;}
	.st39{fill-rule:evenodd;clip-rule:evenodd;fill:#8AA8CF;}
	.st40{fill-rule:evenodd;clip-rule:evenodd;fill:#86A2C8;}
	.st41{fill-rule:evenodd;clip-rule:evenodd;fill:#88A6CD;}
	.st42{fill-rule:evenodd;clip-rule:evenodd;fill:#F1F5F9;}
	.st43{fill-rule:evenodd;clip-rule:evenodd;fill:#809BC0;}
	.st44{fill-rule:evenodd;clip-rule:evenodd;fill:#7E99BE;}
	.st45{fill-rule:evenodd;clip-rule:evenodd;fill:#809BC1;}
	.st46{fill-rule:evenodd;clip-rule:evenodd;fill:#809AC0;}
	.st47{fill-rule:evenodd;clip-rule:evenodd;fill:#889EC0;}
	.st48{fill-rule:evenodd;clip-rule:evenodd;fill:#7A95BD;}
	.st49{fill-rule:evenodd;clip-rule:evenodd;fill:#ECBFC5;}
	.st50{fill-rule:evenodd;clip-rule:evenodd;fill:#F4F8FA;}
	.st51{fill-rule:evenodd;clip-rule:evenodd;fill:#F4F7FB;}
	.st52{fill-rule:evenodd;clip-rule:evenodd;fill:#7592B9;}
	.st53{fill-rule:evenodd;clip-rule:evenodd;fill:#7694BB;}
	.st54{fill-rule:evenodd;clip-rule:evenodd;fill:#7594BB;}
	.st55{fill-rule:evenodd;clip-rule:evenodd;fill:#7391B8;}
	.st56{fill-rule:evenodd;clip-rule:evenodd;fill:#7894BA;}
	.st57{fill-rule:evenodd;clip-rule:evenodd;fill:#7694BA;}
	.st58{fill-rule:evenodd;clip-rule:evenodd;fill:#7895BC;}
	.st59{fill-rule:evenodd;clip-rule:evenodd;fill:#677AA2;}
	.st60{fill-rule:evenodd;clip-rule:evenodd;fill:#6984AB;}
	.st61{fill-rule:evenodd;clip-rule:evenodd;fill:#6E8AB1;}
	.st62{fill-rule:evenodd;clip-rule:evenodd;fill:#718BB2;}
	.st63{fill-rule:evenodd;clip-rule:evenodd;fill:#6F89AF;}
	.st64{fill-rule:evenodd;clip-rule:evenodd;fill:#6C88B0;}
	.st65{fill-rule:evenodd;clip-rule:evenodd;fill:#6B87AE;}
	.st66{fill-rule:evenodd;clip-rule:evenodd;fill:#6884AD;}
	.st67{opacity:0.966;fill-rule:evenodd;clip-rule:evenodd;fill:#F1F6FB;enable-background:new    ;}
	.st68{fill-rule:evenodd;clip-rule:evenodd;fill:#D2DDEB;}
	.st69{fill-rule:evenodd;clip-rule:evenodd;fill:#F3F5FA;}
	.st70{fill-rule:evenodd;clip-rule:evenodd;fill:#5E7BA2;}
	.st71{fill-rule:evenodd;clip-rule:evenodd;fill:#5A779F;}
	.st72{fill-rule:evenodd;clip-rule:evenodd;fill:#6580A7;}
	.st73{fill-rule:evenodd;clip-rule:evenodd;fill:#627EA5;}
	.st74{fill-rule:evenodd;clip-rule:evenodd;fill:#5D7AA2;}
	.st75{fill-rule:evenodd;clip-rule:evenodd;fill:#5D7BA1;}
	.st76{fill-rule:evenodd;clip-rule:evenodd;fill:#56749F;}
	.st77{fill-rule:evenodd;clip-rule:evenodd;fill:#FDFBFB;}
	.st78{fill-rule:evenodd;clip-rule:evenodd;fill:#E8BBC2;}
	.st79{fill-rule:evenodd;clip-rule:evenodd;fill:#C8122F;}
	.st80{fill-rule:evenodd;clip-rule:evenodd;fill:#FEFCFD;}
	.st81{fill-rule:evenodd;clip-rule:evenodd;fill:#6A7DA4;}
	.st82{opacity:0.071;fill-rule:evenodd;clip-rule:evenodd;fill:#FAF1F4;enable-background:new    ;}
	.st83{fill-rule:evenodd;clip-rule:evenodd;fill:#FEFDFD;}
</style>
<g>
	<path class="st0" d="M407.907,0.053c0,146.667,0,293.333,0,440c-135.667,0-271.333,0-407,0c-1.482-23.649-1.149-47.316,1-71
		c1.894,0.548,3.56,1.548,5,3c0.333-0.5,0.667-1,1-1.5c-1.204-4.466-2.871-8.633-5-12.5c-0.268-1.599,0.065-2.932,1-4
		c4-2.667,8-5.333,12-8c0.543-0.06,0.876-0.393,1-1c-3.945-0.991-7.945-1.324-12-1c5.6-38.09,16.6-74.423,33-109
		c2.48-1.412,4.813-3.078,7-5c4.667,3.333,9.333,6.667,14,10c0.333-0.5,0.667-1,1-1.5c-2.202-4.639-3.869-9.472-5-14.5
		c3.582-3.797,7.582-7.13,12-10c0.789-0.283,1.456-0.783,2-1.5c-6.414-0.207-12.747-0.707-19-1.5c7.421-14.52,16.087-28.187,26-41
		c3.969,3.325,7.969,6.659,12,10c-2.643,5.086-4.143,10.419-4.5,16c4.077-3.912,8.577-7.245,13.5-10c4.667,3.333,9.333,6.667,14,10
		c0.333-0.333,0.667-0.667,1-1c-2.726-5.418-4.226-11.085-4.5-17c3.989-2.497,7.823-5.164,11.5-8c0.543-0.06,0.876-0.393,1-1
		c-5.628-0.995-11.294-1.329-17-1c-1.383-5.473-3.383-10.807-6-16c-2.247,5.159-3.914,10.492-5,16c-5,0-10,0-15,0
		c41.769-55.442,93.769-98.442,156-129c3.679,2.524,7.012,5.524,10,9c-2.242,5.212-3.742,10.546-4.5,16
		c4.508-3.584,9.174-6.918,14-10c4.826,3.082,9.492,6.416,14,10c-0.856-5.584-2.356-11.084-4.5-16.5c3.817-3.407,7.817-6.574,12-9.5
		c0.789-0.283,1.456-0.783,2-1.5c-5.991-0.499-11.991-0.666-18-0.5c-0.267-2.465-0.934-4.799-2-7
		C304.712,9.918,355.378,0.251,407.907,0.053z"/>
</g>
<g>
	<path class="st1" d="M465.907,4.053c-0.167,115.334,0,230.667,0.5,346c115.43,0.999,230.93,1.332,346.5,1
		c6.535,38.515,6.535,77.182,0,116c-115.334-0.167-230.667,0-346,0.5c-0.999,115.43-1.332,230.93-1,346.5
		c-65.618,10.605-129.618,4.105-192-19.5c-28.299-10.986-55.633-23.819-82-38.5c71.831-0.999,143.831-1.333,216-1c0-21,0-42,0-63
		c-98.501-0.333-196.835,0.001-295,1c-10.366-10.365-20.366-21.032-30-32c1.218-1.832,0.551-2.832-2-3c-1.826-1.647-3.16-3.647-4-6
		c0.073-1.527-0.594-2.527-2-3c-4.723-5.757-8.723-12.091-12-19c114.93-0.998,229.93-1.331,345-1c0-21,0-42,0-63c-126,0-252,0-378,0
		c-7.667-20.336-14.334-41.002-20-62c132.667,0,265.333,0,398,0c0-21.333,0-42.667,0-64c0-146.667,0-293.333,0-440
		C427.152-0.291,446.485,1.043,465.907,4.053z"/>
</g>
<g>
	<path class="st2" d="M465.907,4.053c13.273,1.921,26.273,4.587,39,8c-0.333,72.003,0,144.003,1,216c0.607-0.124,0.94-0.457,1-1
		c49.356-48.355,98.022-97.355,146-147c5.938,3.606,11.271,7.939,16,13c-54.558,53.892-108.892,108.225-163,163
		c-1.327,18.171-1.327,36.504,0,55c0.607-0.124,0.94-0.457,1-1c63.333-63.667,126.667-127.333,190-191
		c14.643,13.652,27.643,28.652,39,45c-49.027,48.36-97.694,97.027-146,146c-0.543,0.06-0.876,0.393-1,1
		c72.166,1.332,144.166,1.332,216,0c3.798,12.989,6.464,26.322,8,40c-115.57,0.332-231.07-0.001-346.5-1
		C465.907,234.72,465.74,119.387,465.907,4.053z"/>
</g>
<g>
	<path class="st3" d="M505.907,12.053c53.854,12.769,102.854,35.435,147,68c-47.978,49.645-96.644,98.645-146,147
		C505.908,155.555,505.574,83.888,505.907,12.053z"/>
</g>
<g>
	<path class="st4" d="M354.907,20.053c0.997-0.03,1.664,0.47,2,1.5c1.872,4.618,3.539,9.285,5,14c5.696,0.17,11.362,0.67,17,1.5
		c-4.078,3.123-8.245,6.123-12.5,9c0.15,5.962,1.65,11.629,4.5,17c-0.333,0.333-0.667,0.667-1,1c-4.37-3.54-8.87-6.874-13.5-10
		c-4.397,3.118-8.897,6.118-13.5,9c0.025-5.12,1.359-10.12,4-15c-4.443-4.062-9.11-7.895-14-11.5c6.028-0.17,12.028-0.67,18-1.5
		C352.403,30.065,353.737,25.065,354.907,20.053z"/>
</g>
<g>
	<path class="st5" d="M255.907,29.053c1.066,2.201,1.733,4.535,2,7c5.333,0.667,10.667,1.333,16,2c-4.183,2.926-8.183,6.093-12,9.5
		c2.144,5.416,3.644,10.916,4.5,16.5c-4.508-3.584-9.174-6.918-14-10c-4.826,3.082-9.492,6.416-14,10
		c0.758-5.454,2.258-10.788,4.5-16c-2.988-3.476-6.321-6.476-10-9c2.454-1.56,5.12-2.56,8-3c2.104,0.299,4.104-0.034,6-1
		c0.627-0.917,0.961-1.917,1-3C250.579,31.052,253.245,30.052,255.907,29.053z"/>
</g>
<g>
	<path class="st6" d="M247.907,32.053c-0.039,1.083-0.373,2.083-1,3c-1.896,0.966-3.896,1.299-6,1
		C243.042,34.482,245.375,33.149,247.907,32.053z"/>
</g>
<g>
	<path class="st7" d="M257.907,36.053c6.009-0.166,12.009,0.001,18,0.5c-0.544,0.717-1.211,1.217-2,1.5
		C268.574,37.386,263.24,36.72,257.907,36.053z"/>
</g>
<g>
	<path class="st8" d="M205.907,80.053c5.333,0.667,10.667,1.333,16,2c-4.12,2.947-8.12,6.113-12,9.5
		c2.546,5.291,4.046,10.791,4.5,16.5c-4.508-3.584-9.174-6.918-14-10c-4.63,3.126-9.13,6.46-13.5,10c-0.333-0.5-0.667-1-1-1.5
		c1.59-4.858,3.256-9.691,5-14.5c-3.582-3.797-7.582-7.13-12-10c5.333-0.667,10.667-1.333,16-2c1.54-5.455,3.374-10.788,5.5-16
		C203.316,68.944,205.149,74.277,205.907,80.053z"/>
</g>
<g>
	<path class="st9" d="M504.907,12.053c0.333,0,0.667,0,1,0c-0.333,71.835,0.001,143.502,1,215c-0.06,0.543-0.393,0.876-1,1
		C504.907,156.056,504.574,84.056,504.907,12.053z"/>
</g>
<g>
	<path class="st10" d="M194.907,80.053c-5.333,0.667-10.667,1.333-16,2c-0.789-0.283-1.456-0.783-2-1.5
		C182.898,80.054,188.898,79.887,194.907,80.053z"/>
</g>
<g>
	<path class="st11" d="M205.907,80.053c6.009-0.166,12.009,0.001,18,0.5c-0.544,0.717-1.211,1.217-2,1.5
		C216.574,81.386,211.24,80.72,205.907,80.053z"/>
</g>
<g>
	<path class="st12" d="M299.907,77.053c0,1.333,0,2.667,0,4c-5.858-0.322-11.525,0.011-17,1c-0.789-0.283-1.456-0.783-2-1.5
		c5.991-0.499,11.991-0.666,18-0.5C298.67,78.762,299.003,77.762,299.907,77.053z"/>
</g>
<g>
	<path class="st13" d="M307.907,75.053c1.431,1.28,2.098,2.947,2,5c6.009-0.166,12.009,0.001,18,0.5c-0.544,0.717-1.211,1.217-2,1.5
		c-5.514-0.667-11.181-1.333-17-2C308.098,78.482,307.764,76.815,307.907,75.053z"/>
</g>
<g>
	<path class="st14" d="M307.907,75.053c-0.143,1.762,0.191,3.429,1,5c5.819,0.667,11.486,1.333,17,2
		c-4.183,2.926-8.183,6.093-12,9.5c2.148,5.426,3.648,10.926,4.5,16.5c-4.677-3.348-9.344-6.681-14-10
		c-4.826,3.082-9.492,6.416-14,10c0.867-5.611,2.367-11.111,4.5-16.5c-3.899-3.411-7.899-6.578-12-9.5
		c5.475-0.989,11.142-1.322,17-1c0-1.333,0-2.667,0-4c0.615-4.347,2.115-8.347,4.5-12C306.183,68.15,307.35,71.483,307.907,75.053z"
		/>
</g>
<g>
	<path class="st15" d="M668.907,93.053c10.136,7.746,19.469,16.413,28,26c-63.333,63.667-126.667,127.333-190,191
		c-0.997-17.826-1.33-35.826-1-54C560.015,201.278,614.349,146.945,668.907,93.053z"/>
</g>
<g>
	<path class="st16" d="M153.907,124.053c5.333,0.667,10.667,1.333,16,2c-3.342,2.768-6.842,5.434-10.5,8
		c0.16,6.14,1.66,11.973,4.5,17.5c-5.15-2.595-10.15-5.762-15-9.5c-4.945,2.945-9.612,6.279-14,10c-0.333-0.333-0.667-0.667-1-1
		c2.85-5.371,4.35-11.038,4.5-17c-3.989-2.497-7.823-5.164-11.5-8c5.333-0.667,10.667-1.333,16-2c1.698-5.469,3.698-10.802,6-16
		C151.381,113.142,153.048,118.475,153.907,124.053z"/>
</g>
<g>
	<path class="st14" d="M256.907,121.053c0,1.333,0,2.667,0,4c5.858-0.322,11.525,0.011,17,1c-4.183,2.926-8.183,6.093-12,9.5
		c2.068,5.449,3.568,10.949,4.5,16.5c-4.677-3.348-9.344-6.681-14-10c-4.826,3.082-9.492,6.416-14,10c0.76-5.46,2.26-10.793,4.5-16
		c-3.677-3.674-7.677-7.007-12-10c5.333-0.667,10.667-1.333,16-2c1.142-5.594,2.975-10.927,5.5-16
		C254.598,112.126,256.098,116.459,256.907,121.053z"/>
</g>
<g>
	<path class="st17" d="M361.907,124.053c5.333,0.667,10.667,1.333,16,2c-3.677,2.836-7.511,5.503-11.5,8
		c0.15,5.962,1.65,11.629,4.5,17c-0.333,0.333-0.667,0.667-1,1c-4.388-3.721-9.055-7.055-14-10c-4.589,3.211-9.089,6.545-13.5,10
		c0.454-5.709,1.954-11.209,4.5-16.5c-3.977-3.655-8.311-6.822-13-9.5c5.667-0.667,11.333-1.333,17-2
		c0.742-5.725,2.575-11.059,5.5-16C358.243,113.405,360.077,118.738,361.907,124.053z"/>
</g>
<g>
	<path class="st18" d="M142.907,124.053c-5.333,0.667-10.667,1.333-16,2c-0.789-0.283-1.456-0.783-2-1.5
		C130.898,124.054,136.898,123.887,142.907,124.053z"/>
</g>
<g>
	<path class="st19" d="M153.907,124.053c6.009-0.166,12.009,0.001,18,0.5c-0.544,0.717-1.211,1.217-2,1.5
		C164.574,125.386,159.24,124.72,153.907,124.053z"/>
</g>
<g>
	<path class="st20" d="M246.907,124.053c-5.333,0.667-10.667,1.333-16,2c-0.789-0.283-1.456-0.783-2-1.5
		C234.898,124.054,240.898,123.887,246.907,124.053z"/>
</g>
<g>
	<path class="st21" d="M256.907,121.053c0.904,0.709,1.237,1.709,1,3c6.009-0.166,12.009,0.001,18,0.5
		c-0.544,0.717-1.211,1.217-2,1.5c-5.475-0.989-11.142-1.322-17-1C256.907,123.72,256.907,122.386,256.907,121.053z"/>
</g>
<g>
	<path class="st22" d="M350.907,124.053c-5.667,0.667-11.333,1.333-17,2c-0.543-0.06-0.876-0.393-1-1
		C338.87,124.057,344.87,123.724,350.907,124.053z"/>
</g>
<g>
	<path class="st23" d="M361.907,124.053c6.009-0.166,12.009,0.001,18,0.5c-0.544,0.717-1.211,1.217-2,1.5
		C372.574,125.386,367.24,124.72,361.907,124.053z"/>
</g>
<g>
	<path class="st24" d="M205.907,168.053c5.333,0.667,10.667,1.333,16,2c-4.273,2.934-8.273,6.267-12,10
		c2.452,5.152,3.952,10.486,4.5,16c-4.641-3.141-9.141-6.474-13.5-10c-4.945,2.945-9.612,6.279-14,10c-0.333-0.333-0.667-0.667-1-1
		c2.265-4.795,3.932-9.795,5-15c-3.582-3.797-7.582-7.13-12-10c5.333-0.667,10.667-1.333,16-2c1.53-5.422,3.363-10.755,5.5-16
		C203.157,157.043,204.99,162.376,205.907,168.053z"/>
</g>
<g>
	<path class="st25" d="M102.907,168.053c5.333,0.667,10.667,1.333,16,2c-3.677,2.836-7.511,5.503-11.5,8
		c0.274,5.915,1.774,11.582,4.5,17c-0.333,0.333-0.667,0.667-1,1c-4.667-3.333-9.333-6.667-14-10c-4.923,2.755-9.423,6.088-13.5,10
		c0.357-5.581,1.857-10.914,4.5-16c-4.031-3.341-8.031-6.675-12-10c0.333-0.667,0.667-1.333,1-2c5,0,10,0,15,0
		c1.086-5.508,2.753-10.841,5-16C99.524,157.246,101.524,162.58,102.907,168.053z"/>
</g>
<g>
	<path class="st26" d="M309.907,168.053c5.333,0.667,10.667,1.333,16,2c-4.511,3.017-8.511,6.517-12,10.5
		c1.889,4.705,3.556,9.539,5,14.5c-0.333,0.333-0.667,0.667-1,1c-4.37-3.54-8.87-6.874-13.5-10c-4.656,3.319-9.323,6.652-14,10
		c1.146-5.332,2.646-10.666,4.5-16c-3.727-3.733-7.727-7.066-12-10c5.333-0.667,10.667-1.333,16-2c1.142-5.593,2.975-10.926,5.5-16
		C306.243,157.405,308.077,162.738,309.907,168.053z"/>
</g>
<g>
	<path class="st3" d="M735.907,164.053c32.908,44.158,55.908,93.158,69,147c-71.835,0.333-143.502-0.001-215-1
		C638.213,261.08,686.88,212.413,735.907,164.053z"/>
</g>
<g>
	<path class="st27" d="M102.907,168.053c5.706-0.329,11.372,0.005,17,1c-0.124,0.607-0.457,0.94-1,1
		C113.574,169.386,108.24,168.72,102.907,168.053z"/>
</g>
<g>
	<path class="st28" d="M194.907,168.053c-5.333,0.667-10.667,1.333-16,2c-0.789-0.283-1.456-0.783-2-1.5
		C182.898,168.054,188.898,167.887,194.907,168.053z"/>
</g>
<g>
	<path class="st29" d="M205.907,168.053c6.037-0.329,12.037,0.004,18,1c-0.457,0.798-1.124,1.131-2,1
		C216.574,169.386,211.24,168.72,205.907,168.053z"/>
</g>
<g>
	<path class="st30" d="M298.907,168.053c-5.333,0.667-10.667,1.333-16,2c-0.876,0.131-1.543-0.202-2-1
		C286.87,168.057,292.87,167.724,298.907,168.053z"/>
</g>
<g>
	<path class="st31" d="M309.907,168.053c6.009-0.166,12.009,0.001,18,0.5c-0.544,0.717-1.211,1.217-2,1.5
		C320.574,169.386,315.24,168.72,309.907,168.053z"/>
</g>
<g>
	<path class="st32" d="M257.907,212.053c5.333,0.667,10.667,1.333,16,2c-4.273,2.934-8.273,6.267-12,10
		c1.762,4.785,3.428,9.618,5,14.5c-0.333,0.5-0.667,1-1,1.5c-4.359-3.526-8.859-6.859-13.5-10c-4.641,3.141-9.141,6.474-13.5,10
		c0.219-5.379,1.553-10.713,4-16c-3.727-3.733-7.727-7.066-12-10c5.333-0.667,10.667-1.333,16-2c1.838-5.361,3.671-10.694,5.5-16
		C254.932,201.127,256.765,206.46,257.907,212.053z"/>
</g>
<g>
	<path class="st8" d="M154.907,212.053c5.333,0.667,10.667,1.333,16,2c-4.274,3.148-8.608,6.315-13,9.5
		c2.535,5.263,4.035,10.763,4.5,16.5c-4.411-3.455-8.911-6.789-13.5-10c-4.945,2.945-9.612,6.279-14,10
		c-0.333-0.333-0.667-0.667-1-1c2.127-4.838,3.794-9.838,5-15c-3.582-3.797-7.582-7.13-12-10c5.906-0.354,11.573-1.354,17-3
		c1.065-5.196,2.732-10.196,5-15C150.921,201.492,152.921,206.825,154.907,212.053z"/>
</g>
<g>
	<path class="st33" d="M361.907,212.053c5.333,0.667,10.667,1.333,16,2c-4.418,2.87-8.418,6.203-12,10
		c1.206,5.162,2.873,10.162,5,15c-0.333,0.333-0.667,0.667-1,1c-4.667-3.333-9.333-6.667-14-10c-4.589,3.211-9.089,6.545-13.5,10
		c0.548-5.514,2.048-10.848,4.5-16c-4.144-3.573-8.478-6.906-13-10c5.667-0.667,11.333-1.333,17-2c0.713-5.423,2.546-10.423,5.5-15
		C358.739,201.885,360.573,206.885,361.907,212.053z"/>
</g>
<g>
	<path class="st34" d="M49.907,211.053c5.427,1.646,11.094,2.646,17,3c-4.418,2.87-8.418,6.203-12,10
		c1.131,5.028,2.798,9.861,5,14.5c-0.333,0.5-0.667,1-1,1.5c-4.667-3.333-9.333-6.667-14-10c-2.187,1.922-4.52,3.588-7,5
		C41.399,226.735,45.399,218.735,49.907,211.053z"/>
</g>
<g>
	<path class="st35" d="M49.907,211.053c6.253,0.793,12.586,1.293,19,1.5c-0.544,0.717-1.211,1.217-2,1.5
		C61.001,213.699,55.334,212.699,49.907,211.053z"/>
</g>
<g>
	<path class="st36" d="M143.907,211.053c-5.427,1.646-11.094,2.646-17,3c-0.789-0.283-1.456-0.783-2-1.5
		C131.321,212.346,137.654,211.846,143.907,211.053z"/>
</g>
<g>
	<path class="st37" d="M154.907,212.053c5.706-0.329,11.372,0.005,17,1c-0.124,0.607-0.457,0.94-1,1
		C165.574,213.386,160.24,212.72,154.907,212.053z"/>
</g>
<g>
	<path class="st38" d="M246.907,212.053c-5.333,0.667-10.667,1.333-16,2c-0.876,0.131-1.543-0.202-2-1
		C234.87,212.057,240.87,211.724,246.907,212.053z"/>
</g>
<g>
	<path class="st39" d="M257.907,212.053c6.009-0.166,12.009,0.001,18,0.5c-0.544,0.717-1.211,1.217-2,1.5
		C268.574,213.386,263.24,212.72,257.907,212.053z"/>
</g>
<g>
	<path class="st40" d="M350.907,212.053c-5.667,0.667-11.333,1.333-17,2c-0.543-0.06-0.876-0.393-1-1
		C338.87,212.057,344.87,211.724,350.907,212.053z"/>
</g>
<g>
	<path class="st41" d="M361.907,212.053c5.706-0.329,11.372,0.005,17,1c-0.124,0.607-0.457,0.94-1,1
		C372.574,213.386,367.24,212.72,361.907,212.053z"/>
</g>
<g>
	<path class="st8" d="M101.907,255.053c5.427,1.646,11.094,2.646,17,3c-4.418,2.87-8.418,6.203-12,10c1.377,5.09,3.044,10.09,5,15
		c-0.333,0.333-0.667,0.667-1,1c-4.667-3.333-9.333-6.667-14-10c-4.589,3.211-9.089,6.545-13.5,10c0.517-5.24,1.684-10.407,3.5-15.5
		c-3.331-4.181-7.331-7.681-12-10.5c5.667-0.667,11.333-1.333,17-2c0.859-5.578,2.526-10.911,5-16
		C99.342,244.793,101.009,249.793,101.907,255.053z"/>
</g>
<g>
	<path class="st42" d="M309.907,256.053c5.333,0.667,10.667,1.333,16,2c-2.933,2.145-5.933,4.312-9,6.5
		c-1.399,1.062-2.399,2.395-3,4c1.572,4.882,3.238,9.715,5,14.5c-0.333,0.333-0.667,0.667-1,1c-4.388-3.721-9.055-7.055-14-10
		c-4.359,3.526-8.859,6.859-13.5,10c0.758-5.454,2.258-10.788,4.5-16c-3.784-4.057-8.117-7.391-13-10c5.667-0.667,11.333-1.333,17-2
		c1.142-5.593,2.975-10.926,5.5-16C306.544,245.298,308.377,250.631,309.907,256.053z"/>
</g>
<g>
	<path class="st8" d="M205.907,256.053c5.667,0.667,11.333,1.333,17,2c-4.883,2.609-9.216,5.943-13,10
		c2.643,5.086,4.143,10.419,4.5,16c-4.641-3.141-9.141-6.474-13.5-10c-4.945,2.945-9.612,6.279-14,10c-0.333-0.333-0.667-0.667-1-1
		c1.765-4.796,3.432-9.629,5-14.5c-3.513-4.01-7.513-7.51-12-10.5c5.333-0.667,10.667-1.333,16-2c1.497-5.321,3.33-10.654,5.5-16
		C202.544,245.262,204.378,250.595,205.907,256.053z"/>
</g>
<g>
	<path class="st43" d="M91.907,256.053c-5.667,0.667-11.333,1.333-17,2c-0.543-0.06-0.876-0.393-1-1
		C79.87,256.057,85.87,255.724,91.907,256.053z"/>
</g>
<g>
	<path class="st44" d="M101.907,255.053c6.253,0.793,12.586,1.293,19,1.5c-0.544,0.717-1.211,1.217-2,1.5
		C113.001,257.699,107.334,256.699,101.907,255.053z"/>
</g>
<g>
	<path class="st45" d="M194.907,256.053c-5.333,0.667-10.667,1.333-16,2c-0.543-0.06-0.876-0.393-1-1
		C183.535,256.058,189.201,255.724,194.907,256.053z"/>
</g>
<g>
	<path class="st46" d="M205.907,256.053c6.037-0.329,12.037,0.004,18,1c-0.124,0.607-0.457,0.94-1,1
		C217.24,257.386,211.574,256.72,205.907,256.053z"/>
</g>
<g>
	<path class="st47" d="M298.907,256.053c-5.667,0.667-11.333,1.333-17,2c-0.543-0.06-0.876-0.393-1-1
		C286.87,256.057,292.87,255.724,298.907,256.053z"/>
</g>
<g>
	<path class="st48" d="M309.907,256.053c6.009-0.166,12.009,0.001,18,0.5c-0.544,0.717-1.211,1.217-2,1.5
		C320.574,257.386,315.24,256.72,309.907,256.053z"/>
</g>
<g>
	<path class="st49" d="M505.907,256.053c-0.33,18.174,0.003,36.174,1,54c-0.06,0.543-0.393,0.876-1,1
		C504.58,292.557,504.58,274.224,505.907,256.053z"/>
</g>
<g>
	<path class="st50" d="M360.907,299.053c5.427,1.646,11.094,2.646,17,3c-4.418,2.87-8.418,6.203-12,10c1.046,4.425,2.379,8.758,4,13
		c-0.333,0.667-0.667,1.333-1,2c-4.508-2.753-8.841-5.753-13-9c-4.589,3.211-9.089,6.545-13.5,10c1.927-5.741,2.927-11.741,3-18
		c-3.989-2.497-7.823-5.164-11.5-8c5.667-0.667,11.333-1.333,17-2c0.924-5.723,2.758-11.057,5.5-16
		C358.374,288.923,359.874,293.923,360.907,299.053z"/>
</g>
<g>
	<path class="st51" d="M50.907,300.053c5.333,0.667,10.667,1.333,16,2c-4.485,2.988-8.485,6.488-12,10.5
		c1.519,4.874,3.186,9.708,5,14.5c-0.333,0.333-0.667,0.667-1,1c-4.667-3.333-9.333-6.667-14-10c-4.359,3.526-8.859,6.859-13.5,10
		c0.859-5.426,2.359-10.759,4.5-16c-4.144-3.573-8.478-6.906-13-10c5.667-0.667,11.333-1.333,17-2c1.353-5.407,3.02-10.741,5-16
		C47.212,289.276,49.212,294.609,50.907,300.053z"/>
</g>
<g>
	<path class="st32" d="M153.907,300.053c5.667,0.667,11.333,1.333,17,2c-4.522,3.094-8.856,6.427-13,10
		c2.452,5.152,3.952,10.486,4.5,16c-4.641-3.141-9.141-6.474-13.5-10c-4.333,3.167-8.667,6.333-13,9.5c-0.667,0.667-1.333,0.667-2,0
		c1.758-5.108,3.425-10.275,5-15.5c-3.677-3.674-7.677-7.007-12-10c5.333-0.667,10.667-1.333,16-2c1.949-5.254,3.949-10.587,6-16
		C151.381,289.142,153.048,294.475,153.907,300.053z"/>
</g>
<g>
	<path class="st8" d="M257.907,300.053c5.333,0.667,10.667,1.333,16,2c-4.273,2.934-8.273,6.267-12,10
		c1.402,4.039,2.902,8.039,4.5,12c0.781,1.444,0.614,2.777-0.5,4c-4.359-3.526-8.859-6.859-13.5-10c-4.306,2.806-8.473,5.806-12.5,9
		c-0.333-0.833-0.667-1.667-1-2.5c1.409-4.539,2.576-9.039,3.5-13.5c-3.812-3.14-7.645-6.14-11.5-9c5.333-0.667,10.667-1.333,16-2
		c1.773-5.379,3.606-10.712,5.5-16C254.851,289.152,256.684,294.486,257.907,300.053z"/>
</g>
<g>
	<path class="st52" d="M39.907,300.053c-5.667,0.667-11.333,1.333-17,2c-0.543-0.06-0.876-0.393-1-1
		C27.87,300.057,33.87,299.724,39.907,300.053z"/>
</g>
<g>
	<path class="st53" d="M50.907,300.053c5.706-0.329,11.372,0.005,17,1c-0.124,0.607-0.457,0.94-1,1
		C61.574,301.386,56.24,300.72,50.907,300.053z"/>
</g>
<g>
	<path class="st54" d="M142.907,300.053c-5.333,0.667-10.667,1.333-16,2c-0.543-0.06-0.876-0.393-1-1
		C131.535,300.058,137.201,299.724,142.907,300.053z"/>
</g>
<g>
	<path class="st53" d="M153.907,300.053c6.037-0.329,12.037,0.004,18,1c-0.124,0.607-0.457,0.94-1,1
		C165.24,301.386,159.574,300.72,153.907,300.053z"/>
</g>
<g>
	<path class="st55" d="M246.907,300.053c-5.333,0.667-10.667,1.333-16,2c-0.876,0.131-1.543-0.202-2-1
		C234.87,300.057,240.87,299.724,246.907,300.053z"/>
</g>
<g>
	<path class="st56" d="M257.907,300.053c6.037-0.329,12.037,0.004,18,1c-0.457,0.798-1.124,1.131-2,1
		C268.574,301.386,263.24,300.72,257.907,300.053z"/>
</g>
<g>
	<path class="st57" d="M350.907,300.053c-5.667,0.667-11.333,1.333-17,2c-0.543-0.06-0.876-0.393-1-1
		C338.87,300.057,344.87,299.724,350.907,300.053z"/>
</g>
<g>
	<path class="st58" d="M360.907,299.053c6.253,0.793,12.586,1.293,19,1.5c-0.544,0.717-1.211,1.217-2,1.5
		C372.001,301.699,366.334,300.699,360.907,299.053z"/>
</g>
<g>
	<path class="st59" d="M589.907,310.053c71.498,0.999,143.165,1.333,215,1c-71.834,1.332-143.834,1.332-216,0
		C589.031,310.446,589.364,310.113,589.907,310.053z"/>
</g>
<g>
	<path class="st14" d="M101.907,343.053c5.427,1.646,11.094,2.646,17,3c-4.323,2.993-8.323,6.326-12,10
		c0.585,4.614,1.918,8.947,4,13c-0.333,0.667-0.667,1.333-1,2c-4.508-2.753-8.841-5.753-13-9c-4.359,3.526-8.859,6.859-13.5,10
		c0.517-5.24,1.684-10.407,3.5-15.5c-3.331-4.181-7.331-7.681-12-10.5c5.667-0.667,11.333-1.333,17-2c0.861-5.584,2.528-10.918,5-16
		C99.035,332.9,100.702,337.9,101.907,343.053z"/>
</g>
<g>
	<path class="st33" d="M205.907,344.053c5.667,0.667,11.333,1.333,17,2c-4.522,3.094-8.856,6.427-13,10
		c2.141,5.241,3.641,10.574,4.5,16c-4.388-3.231-8.888-6.231-13.5-9c-4.968,2.487-9.634,5.487-14,9c-0.333-0.333-0.667-0.667-1-1
		c1.813-4.79,3.479-9.624,5-14.5c-3.539-4.039-7.539-7.539-12-10.5c5.333-0.667,10.667-1.333,16-2c1.497-5.321,3.33-10.654,5.5-16
		C202.932,333.127,204.765,338.46,205.907,344.053z"/>
</g>
<g>
	<path class="st26" d="M309.907,344.053c5.667,0.667,11.333,1.333,17,2c-4.567,2.394-8.734,5.394-12.5,9
		c0.763,5.465,2.263,10.798,4.5,16c-0.333,0.333-0.667,0.667-1,1c-4.667-3.333-9.333-6.667-14-10c-4.333,3.333-8.667,6.667-13,10
		c-0.333-0.5-0.667-1-1-1.5c1.966-4.732,3.633-9.565,5-14.5c-3.784-4.057-8.117-7.391-13-10c5.667-0.667,11.333-1.333,17-2
		c1.54-5.454,3.374-10.788,5.5-16C306.544,333.298,308.377,338.631,309.907,344.053z"/>
</g>
<g>
	<path class="st60" d="M4.907,345.053c0-0.333,0-0.667,0-1c4.055-0.324,8.055,0.009,12,1c-0.124,0.607-0.457,0.94-1,1
		C12.445,345.071,8.778,344.738,4.907,345.053z"/>
</g>
<g>
	<path class="st61" d="M91.907,344.053c-5.667,0.667-11.333,1.333-17,2c-0.543-0.06-0.876-0.393-1-1
		C79.87,344.057,85.87,343.724,91.907,344.053z"/>
</g>
<g>
	<path class="st62" d="M101.907,343.053c5.948,0.627,11.948,1.294,18,2c-0.124,0.607-0.457,0.94-1,1
		C113.001,345.699,107.334,344.699,101.907,343.053z"/>
</g>
<g>
	<path class="st63" d="M194.907,344.053c-5.333,0.667-10.667,1.333-16,2c-0.543-0.06-0.876-0.393-1-1
		C183.535,344.058,189.201,343.724,194.907,344.053z"/>
</g>
<g>
	<path class="st64" d="M205.907,344.053c6.037-0.329,12.037,0.004,18,1c-0.124,0.607-0.457,0.94-1,1
		C217.24,345.386,211.574,344.72,205.907,344.053z"/>
</g>
<g>
	<path class="st65" d="M298.907,344.053c-5.667,0.667-11.333,1.333-17,2c-0.543-0.06-0.876-0.393-1-1
		C286.87,344.057,292.87,343.724,298.907,344.053z"/>
</g>
<g>
	<path class="st66" d="M309.907,344.053c6.037-0.329,12.037,0.004,18,1c-0.124,0.607-0.457,0.94-1,1
		C321.24,345.386,315.574,344.72,309.907,344.053z"/>
</g>
<g>
	<path class="st67" d="M4.907,345.053c3.871-0.315,7.538,0.018,11,1c-4,2.667-8,5.333-12,8
		C3.775,350.983,4.108,347.983,4.907,345.053z"/>
</g>
<g>
	<path class="st68" d="M2.907,358.053c2.129,3.867,3.796,8.034,5,12.5c-0.333,0.5-0.667,1-1,1.5c-1.44-1.452-3.106-2.452-5-3
		C2.132,365.374,2.465,361.707,2.907,358.053z"/>
</g>
<g>
	<path class="st14" d="M50.907,388.053c5.667,0.667,11.333,1.333,17,2c-4.567,2.394-8.734,5.394-12.5,9
		c0.259,5.453,1.759,10.62,4.5,15.5c-0.333,0.5-0.667,1-1,1.5c-4.667-3.333-9.333-6.667-14-10c-4.333,3.333-8.667,6.667-13,10
		c-0.333-0.5-0.667-1-1-1.5c1.966-4.732,3.633-9.565,5-14.5c-4.144-3.573-8.478-6.906-13-10c5.667-0.667,11.333-1.333,17-2
		c1.282-5.225,3.115-10.225,5.5-15C47.76,377.953,49.593,382.953,50.907,388.053z"/>
</g>
<g>
	<path class="st32" d="M257.907,388.053c5.667,0.667,11.333,1.333,17,2c-4.883,2.609-9.216,5.943-13,10
		c1.762,4.785,3.428,9.618,5,14.5c-0.333,0.5-0.667,1-1,1.5c-4.102-3.604-8.602-6.604-13.5-9c-4.898,2.396-9.398,5.396-13.5,9
		c-0.333-0.5-0.667-1-1-1.5c1.993-5.117,3.493-10.284,4.5-15.5c-3.931-3.377-8.098-6.377-12.5-9c5.667-0.667,11.333-1.333,17-2
		c1.525-5.406,3.358-10.739,5.5-16C254.542,377.25,256.376,382.583,257.907,388.053z"/>
</g>
<g>
	<path class="st16" d="M153.907,388.053c5.667,0.667,11.333,1.333,17,2c-4.339,3.34-8.672,6.674-13,10
		c2.643,5.086,4.143,10.419,4.5,16c-4.388-3.231-8.888-6.231-13.5-9c-5.144,2.896-10.144,5.73-15,8.5c2.06-4.847,3.727-9.847,5-15
		c-0.601-1.605-1.601-2.938-3-4c-3.067-2.188-6.067-4.355-9-6.5c5.906-0.354,11.573-1.354,17-3c1.378-5.091,3.045-10.091,5-15
		C151.192,377.192,152.858,382.525,153.907,388.053z"/>
</g>
<g>
	<path class="st69" d="M366.907,389.053c4.202-0.317,8.202,0.017,12,1c-4.567,2.394-8.734,5.394-12.5,9
		c0.758,5.454,2.258,10.788,4.5,16c-0.333,0.333-0.667,0.667-1,1c-4.667-3.333-9.333-6.667-14-10c-4.359,3.526-8.859,6.859-13.5,10
		c0.512-3.707,1.512-7.374,3-11c0.667-2.333,0.667-4.667,0-7c-4.115-2.448-7.948-5.281-11.5-8.5c5.333-0.333,10.667-0.667,16-1
		c2.358-5.404,4.525-10.904,6.5-16.5c2.136,5.155,3.802,10.489,5,16C363.106,388.959,364.94,389.292,366.907,389.053z"/>
</g>
<g>
	<path class="st70" d="M39.907,388.053c-5.667,0.667-11.333,1.333-17,2c-0.543-0.06-0.876-0.393-1-1
		C27.87,388.057,33.87,387.724,39.907,388.053z"/>
</g>
<g>
	<path class="st71" d="M50.907,388.053c6.037-0.329,12.037,0.004,18,1c-0.124,0.607-0.457,0.94-1,1
		C62.24,389.386,56.574,388.72,50.907,388.053z"/>
</g>
<g>
	<path class="st72" d="M143.907,387.053c-5.427,1.646-11.094,2.646-17,3c-0.543-0.06-0.876-0.393-1-1
		C131.959,388.347,137.959,387.68,143.907,387.053z"/>
</g>
<g>
	<path class="st73" d="M153.907,388.053c6.037-0.329,12.037,0.004,18,1c-0.124,0.607-0.457,0.94-1,1
		C165.24,389.386,159.574,388.72,153.907,388.053z"/>
</g>
<g>
	<path class="st74" d="M246.907,388.053c-5.667,0.667-11.333,1.333-17,2c-0.543-0.06-0.876-0.393-1-1
		C234.87,388.057,240.87,387.724,246.907,388.053z"/>
</g>
<g>
	<path class="st75" d="M257.907,388.053c6.037-0.329,12.037,0.004,18,1c-0.124,0.607-0.457,0.94-1,1
		C269.24,389.386,263.574,388.72,257.907,388.053z"/>
</g>
<g>
	<path class="st76" d="M366.907,389.053c4.183-1.311,8.516-1.311,13,0c-0.124,0.607-0.457,0.94-1,1
		C375.109,389.07,371.109,388.736,366.907,389.053z"/>
</g>
<g>
	<path class="st77" d="M0.907,440.053c135.667,0,271.333,0,407,0c0,21.333,0,42.667,0,64c-132.667,0-265.333,0-398,0
		C4.669,483.051,1.669,461.718,0.907,440.053z"/>
</g>
<g>
	<path class="st2" d="M812.907,467.053c-1.822,13.624-4.489,26.957-8,40c-71.834-1.332-143.834-1.332-216,0
		c0.124,0.607,0.457,0.94,1,1c48.333,49,97,97.667,146,146c-3.606,5.938-7.939,11.271-13,16c-53.826-54.831-107.826-109.164-162-163
		c-18.171-1.327-36.504-1.327-55,0c0.124,0.607,0.457,0.94,1,1c63.667,63.333,127.333,126.667,191,190
		c-14.134,14.472-29.467,27.472-46,39c-47.617-49.284-95.951-97.951-145-146c-0.06-0.543-0.393-0.876-1-1
		c-1,72.33-1.333,144.664-1,217c-12.631,3.718-25.631,6.051-39,7c-0.332-115.57,0.001-231.07,1-346.5
		C582.24,467.053,697.573,466.886,812.907,467.053z"/>
</g>
<g>
	<path class="st78" d="M560.907,507.053c-18.174-0.33-36.174,0.003-54,1c-0.543-0.06-0.876-0.393-1-1
		C524.403,505.726,542.736,505.726,560.907,507.053z"/>
</g>
<g>
	<path class="st59" d="M804.907,507.053c-71.835-0.333-143.502,0.001-215,1c-0.543-0.06-0.876-0.393-1-1
		C661.073,505.721,733.073,505.721,804.907,507.053z"/>
</g>
<g>
	<path class="st79" d="M506.907,508.053c17.826-0.997,35.826-1.33,54-1c54.174,53.836,108.174,108.169,162,163
		c-7.62,9.955-15.954,19.288-25,28C634.24,634.72,570.574,571.386,506.907,508.053z"/>
</g>
<g>
	<path class="st3" d="M804.907,507.053c-12.57,54.128-35.57,103.128-69,147c-49-48.333-97.667-97-146-146
		C661.405,507.054,733.072,506.72,804.907,507.053z"/>
</g>
<g>
	<path class="st80" d="M29.907,566.053c126,0,252,0,378,0c0,21,0,42,0,63c-115.07-0.331-230.07,0.002-345,1
		C49.836,609.914,38.836,588.581,29.907,566.053z"/>
</g>
<g>
	<path class="st3" d="M506.907,591.053c49.049,48.049,97.383,96.716,145,146c-43.549,33.437-92.215,56.77-146,70
		C505.574,734.884,505.908,662.884,506.907,591.053z"/>
</g>
<g>
	<path class="st81" d="M506.907,591.053c-0.999,71.831-1.333,143.831-1,216c-0.333,0-0.667,0-1,0c-0.333-72.336,0-144.67,1-217
		C506.514,590.177,506.847,590.51,506.907,591.053z"/>
</g>
<g>
	<path class="st82" d="M74.907,649.053c1.406,0.473,2.073,1.473,2,3C75.501,651.58,74.834,650.58,74.907,649.053z"/>
</g>
<g>
	<path class="st82" d="M80.907,658.053c2.551,0.168,3.218,1.168,2,3C82.006,660.263,81.339,659.263,80.907,658.053z"/>
</g>
<g>
	<path class="st83" d="M191.907,756.053c-11.617-6.305-22.95-12.972-34-20c-1.211-1.922-2.544-3.755-4-5.5
		c-15.061-10.891-28.728-23.391-41-37.5c98.165-0.999,196.499-1.333,295-1c0,21,0,42,0,63
		C335.738,754.72,263.738,755.054,191.907,756.053z"/>
</g>
</svg>
